# Blender v2.91.0 OBJ File: ''
# www.blender.org
mtllib Twoplanar_grass.mtl
o Plane.001
v -0.076375 0.006328 0.080258
v 0.076796 0.006328 -0.083548
v -0.076375 0.230590 0.080258
v 0.076796 0.230590 -0.083548
v -0.078662 0.006328 -0.081348
v 0.079082 0.006328 0.078058
v -0.078662 0.230590 -0.081348
v 0.079082 0.230590 0.078058
vt 0.000000 0.000000
vt 1.000000 0.000000
vt 1.000000 1.000000
vt 0.000000 1.000000
vt 0.000000 0.000000
vt 1.000000 0.000000
vt 1.000000 1.000000
vt 0.000000 1.000000
vn 0.7304 0.0000 0.6830
vn -0.7108 -0.0000 0.7034
usemtl None
s off
f 1/1/1 2/2/1 4/3/1 3/4/1
f 5/5/2 6/6/2 8/7/2 7/8/2
